<svg width="28" height="28" viewBox="0 0 28 28" fill="none" xmlns="http://www.w3.org/2000/svg">
<path d="M20.7902 10.9983L11.1302 5.45832C10.6075 5.15648 10.0142 4.99836 9.41061 5.00001C8.807 5.00167 8.21459 5.16305 7.69354 5.46776C7.17249 5.77246 6.74137 6.20964 6.44396 6.73489C6.14655 7.26014 5.99345 7.85475 6.00021 8.45832V19.5783C6.00021 20.4854 6.36053 21.3552 7.00191 21.9966C7.64328 22.638 8.51317 22.9983 9.42021 22.9983C10.0207 22.9973 10.6103 22.8387 11.1302 22.5383L20.7902 16.9983C21.3093 16.6979 21.7402 16.2663 22.0398 15.7468C22.3394 15.2272 22.4971 14.638 22.4971 14.0383C22.4971 13.4386 22.3394 12.8494 22.0398 12.3299C21.7402 11.8103 21.3093 11.3787 20.7902 11.0783V10.9983ZM19.7902 15.1883L10.1302 20.8083C9.9137 20.931 9.66908 20.9955 9.42021 20.9955C9.17135 20.9955 8.92673 20.931 8.71021 20.8083C8.49431 20.6837 8.31503 20.5044 8.1904 20.2885C8.06576 20.0725 8.00017 19.8276 8.00021 19.5783V8.41832C8.00017 8.16901 8.06576 7.92409 8.1904 7.70818C8.31503 7.49226 8.49431 7.31297 8.71021 7.18832C8.92746 7.06708 9.17145 7.00179 9.42021 6.99832C9.66875 7.00342 9.91235 7.06861 10.1302 7.18832L19.7902 12.7683C20.0062 12.8929 20.1856 13.0722 20.3103 13.2881C20.435 13.504 20.5006 13.749 20.5006 13.9983C20.5006 14.2477 20.435 14.4926 20.3103 14.7085C20.1856 14.9244 20.0062 15.1037 19.7902 15.2283V15.1883Z" fill="white"/>
</svg>
