<svg width="28" height="28" viewBox="0 0 28 28" fill="none" xmlns="http://www.w3.org/2000/svg">
<g clip-path="url(#clip0_2789_4770)">
<path d="M9.16634 13.7502H18.333M8.47884 8.021H5.27051C5.08817 8.021 4.9133 8.09343 4.78437 8.22236C4.65544 8.35129 4.58301 8.52616 4.58301 8.7085V18.7918C4.58301 18.8821 4.60079 18.9715 4.63534 19.0549C4.66989 19.1383 4.72053 19.2141 4.78437 19.278C4.84821 19.3418 4.924 19.3924 5.00741 19.427C5.09082 19.4615 5.18022 19.4793 5.27051 19.4793H8.47884C8.56912 19.4793 8.65852 19.4615 8.74194 19.427C8.82535 19.3924 8.90114 19.3418 8.96498 19.278C9.02882 19.2141 9.07946 19.1383 9.11401 19.0549C9.14856 18.9715 9.16634 18.8821 9.16634 18.7918V8.7085C9.16634 8.52616 9.09391 8.35129 8.96498 8.22236C8.83605 8.09343 8.66118 8.021 8.47884 8.021ZM22.2288 8.021H19.0205C18.8382 8.021 18.6633 8.09343 18.5344 8.22236C18.4054 8.35129 18.333 8.52616 18.333 8.7085V18.7918C18.333 18.8821 18.3508 18.9715 18.3853 19.0549C18.4199 19.1383 18.4705 19.2141 18.5344 19.278C18.5982 19.3418 18.674 19.3924 18.7574 19.427C18.8408 19.4615 18.9302 19.4793 19.0205 19.4793H22.2288C22.3191 19.4793 22.4085 19.4615 22.4919 19.427C22.5753 19.3924 22.6511 19.3418 22.715 19.278C22.7788 19.2141 22.8295 19.1383 22.864 19.0549C22.8986 18.9715 22.9163 18.8821 22.9163 18.7918V8.7085C22.9163 8.52616 22.8439 8.35129 22.715 8.22236C22.586 8.09343 22.4112 8.021 22.2288 8.021ZM1.14551 16.5002V11.0002C1.14551 10.8178 1.21794 10.643 1.34687 10.514C1.4758 10.3851 1.65067 10.3127 1.83301 10.3127H3.89551C4.07784 10.3127 4.25271 10.3851 4.38164 10.514C4.51057 10.643 4.58301 10.8178 4.58301 11.0002V16.5002C4.58301 16.6825 4.51057 16.8574 4.38164 16.9863C4.25271 17.1152 4.07784 17.1877 3.89551 17.1877H1.83301C1.65067 17.1877 1.4758 17.1152 1.34687 16.9863C1.21794 16.8574 1.14551 16.6825 1.14551 16.5002ZM26.3538 16.5002V11.0002C26.3538 10.8178 26.2814 10.643 26.1525 10.514C26.0235 10.3851 25.8487 10.3127 25.6663 10.3127H23.6038C23.4215 10.3127 23.2466 10.3851 23.1177 10.514C22.9888 10.643 22.9163 10.8178 22.9163 11.0002V16.5002C22.9163 16.6825 22.9888 16.8574 23.1177 16.9863C23.2466 17.1152 23.4215 17.1877 23.6038 17.1877H25.6663C25.8487 17.1877 26.0235 17.1152 26.1525 16.9863C26.2814 16.8574 26.3538 16.6825 26.3538 16.5002Z" stroke="white" stroke-width="1.875" stroke-linecap="round" stroke-linejoin="round"/>
</g>
<defs>
<clipPath id="clip0_2789_4770">
<rect width="27.5" height="27.5" fill="white"/>
</clipPath>
</defs>
</svg>
