<svg width="28" height="28" viewBox="0 0 28 28" fill="none" xmlns="http://www.w3.org/2000/svg">
<g clip-path="url(#clip0_2778_5013)">
<g clip-path="url(#clip1_2778_5013)">
<path d="M9.16732 13.7499H18.334M8.47982 8.02075H5.27148C5.08915 8.02075 4.91428 8.09318 4.78535 8.22212C4.65642 8.35105 4.58398 8.52592 4.58398 8.70825V18.7916C4.58398 18.8819 4.60177 18.9713 4.63632 19.0547C4.67087 19.1381 4.72151 19.2139 4.78535 19.2777C4.84919 19.3416 4.92498 19.3922 5.00839 19.4268C5.0918 19.4613 5.1812 19.4791 5.27148 19.4791H8.47982C8.5701 19.4791 8.6595 19.4613 8.74291 19.4268C8.82632 19.3922 8.90211 19.3416 8.96595 19.2777C9.02979 19.2139 9.08043 19.1381 9.11498 19.0547C9.14953 18.9713 9.16732 18.8819 9.16732 18.7916V8.70825C9.16732 8.52592 9.09488 8.35105 8.96595 8.22212C8.83702 8.09318 8.66215 8.02075 8.47982 8.02075ZM22.2298 8.02075H19.0215C18.8391 8.02075 18.6643 8.09318 18.5353 8.22212C18.4064 8.35105 18.334 8.52592 18.334 8.70825V18.7916C18.334 18.8819 18.3518 18.9713 18.3863 19.0547C18.4209 19.1381 18.4715 19.2139 18.5353 19.2777C18.5992 19.3416 18.675 19.3922 18.7584 19.4268C18.8418 19.4613 18.9312 19.4791 19.0215 19.4791H22.2298C22.3201 19.4791 22.4095 19.4613 22.4929 19.4268C22.5763 19.3922 22.6521 19.3416 22.716 19.2777C22.7798 19.2139 22.8304 19.1381 22.865 19.0547C22.8995 18.9713 22.9173 18.8819 22.9173 18.7916V8.70825C22.9173 8.52592 22.8449 8.35105 22.716 8.22212C22.587 8.09318 22.4122 8.02075 22.2298 8.02075ZM1.14648 16.4999V10.9999C1.14648 10.8176 1.21892 10.6427 1.34785 10.5138C1.47678 10.3849 1.65165 10.3124 1.83398 10.3124H3.89648C4.07882 10.3124 4.25369 10.3849 4.38262 10.5138C4.51155 10.6427 4.58398 10.8176 4.58398 10.9999V16.4999C4.58398 16.6823 4.51155 16.8571 4.38262 16.9861C4.25369 17.115 4.07882 17.1874 3.89648 17.1874H1.83398C1.65165 17.1874 1.47678 17.115 1.34785 16.9861C1.21892 16.8571 1.14648 16.6823 1.14648 16.4999ZM26.3548 16.4999V10.9999C26.3548 10.8176 26.2824 10.6427 26.1535 10.5138C26.0245 10.3849 25.8497 10.3124 25.6673 10.3124H23.6048C23.4225 10.3124 23.2476 10.3849 23.1187 10.5138C22.9897 10.6427 22.9173 10.8176 22.9173 10.9999V16.4999C22.9173 16.6823 22.9897 16.8571 23.1187 16.9861C23.2476 17.115 23.4225 17.1874 23.6048 17.1874H25.6673C25.8497 17.1874 26.0245 17.115 26.1535 16.9861C26.2824 16.8571 26.3548 16.6823 26.3548 16.4999Z" stroke="white" stroke-width="1.875" stroke-linecap="round" stroke-linejoin="round"/>
</g>
</g>
<defs>
<clipPath id="clip0_2778_5013">
<rect width="27.5" height="27.5" fill="white"/>
</clipPath>
<clipPath id="clip1_2778_5013">
<rect width="27.5" height="27.5" fill="white"/>
</clipPath>
</defs>
</svg>
