<svg width="28" height="28" viewBox="0 0 28 28" fill="none" xmlns="http://www.w3.org/2000/svg">
<path d="M22.9163 19.4792V13.1221C22.9163 12.5102 22.9163 12.2043 22.8419 11.919C22.7759 11.6668 22.6674 11.4277 22.521 11.212C22.3549 10.968 22.1257 10.7651 21.6639 10.3629L16.1639 5.55045C15.3092 4.80222 14.8806 4.42753 14.3994 4.28545C13.9754 4.15941 13.5239 4.15941 13.0988 4.28545C12.6176 4.42753 12.1913 4.80107 11.3365 5.54816L5.8354 10.3629C5.37478 10.7663 5.14447 10.968 4.97947 11.2109C4.83257 11.4268 4.72368 11.6663 4.65749 11.919C4.58301 12.2032 4.58301 12.5102 4.58301 13.1221V19.4792C4.58301 20.5471 4.58301 21.0811 4.75717 21.5016C4.87221 21.7797 5.04091 22.0325 5.25364 22.2454C5.46636 22.4583 5.71895 22.6272 5.99697 22.7425C6.41863 22.9167 6.95259 22.9167 8.02051 22.9167C9.08842 22.9167 9.62238 22.9167 10.044 22.7425C10.3221 22.6272 10.5747 22.4583 10.7874 22.2454C11.0001 22.0325 11.1688 21.7797 11.2838 21.5016C11.458 21.0811 11.458 20.5471 11.458 19.4792V18.3334C11.458 17.7256 11.6995 17.1427 12.1292 16.7129C12.559 16.2831 13.1419 16.0417 13.7497 16.0417C14.3575 16.0417 14.9404 16.2831 15.3701 16.7129C15.7999 17.1427 16.0413 17.7256 16.0413 18.3334V19.4792C16.0413 20.5471 16.0413 21.0811 16.2155 21.5016C16.3305 21.7797 16.4992 22.0325 16.712 22.2454C16.9247 22.4583 17.1773 22.6272 17.4553 22.7425C17.877 22.9167 18.4109 22.9167 19.4788 22.9167C20.5468 22.9167 21.0807 22.9167 21.5024 22.7425C21.7804 22.6272 22.033 22.4583 22.2457 22.2454C22.4584 22.0325 22.6271 21.7797 22.7422 21.5016C22.9163 21.0811 22.9163 20.5471 22.9163 19.4792Z" stroke="white" stroke-width="2.29167" stroke-linecap="round" stroke-linejoin="round"/>
</svg>
