<svg width="14" height="14" viewBox="0 0 14 14" fill="none" xmlns="http://www.w3.org/2000/svg">
<path d="M1.66797 7.94801L7.11747 2.49851C7.39993 2.21005 7.73679 1.98047 8.10855 1.82304C8.48031 1.66561 8.8796 1.58346 9.28332 1.58134C9.68703 1.57922 10.0872 1.65718 10.4606 1.81069C10.834 1.96421 11.1732 2.19025 11.4587 2.47572C11.7441 2.7612 11.9702 3.10044 12.1237 3.47384C12.2772 3.84723 12.3552 4.24736 12.3531 4.65108C12.3509 5.0548 12.2688 5.45408 12.1114 5.82585C11.9539 6.19761 11.7243 6.53447 11.4359 6.81693L6.34572 11.9059C6.03038 12.211 5.60777 12.38 5.16901 12.3764C4.73024 12.3728 4.31047 12.1969 4.00021 11.8866C3.68994 11.5763 3.51404 11.1566 3.51042 10.7178C3.50681 10.279 3.67577 9.85643 3.98089 9.54109L8.86455 4.65684" stroke="#A0A0A0" stroke-width="0.875" stroke-linecap="round" stroke-linejoin="round"/>
</svg>
