<svg width="22" height="22" viewBox="0 0 22 22" fill="none" xmlns="http://www.w3.org/2000/svg">
<path fill-rule="evenodd" clip-rule="evenodd" d="M11 2.06251C12.7179 2.06265 14.3993 2.55788 15.843 3.4889C17.2867 4.41992 18.4315 5.74728 19.1404 7.31209C19.8492 8.8769 20.0921 10.6128 19.8399 12.3121C19.5877 14.0114 18.8511 15.6019 17.7184 16.8934C16.5856 18.1849 15.1046 19.1226 13.4528 19.5941C11.8009 20.0657 10.0481 20.0513 8.40422 19.5525C6.76035 19.0537 5.29506 18.0917 4.18376 16.7817C3.07246 15.4717 2.36224 13.8692 2.13813 12.166C2.11721 12.0302 2.12366 11.8915 2.15708 11.7582C2.19051 11.6249 2.25024 11.4997 2.33276 11.3898C2.41529 11.2799 2.51894 11.1876 2.63764 11.1184C2.75634 11.0491 2.88768 11.0043 3.02395 10.9865C3.16022 10.9687 3.29867 10.9783 3.43117 11.0148C3.56366 11.0513 3.68753 11.1139 3.79548 11.199C3.90344 11.284 3.99331 11.3897 4.05982 11.51C4.12632 11.6303 4.16812 11.7626 4.18275 11.8993C4.38555 13.4411 5.10502 14.8688 6.22373 15.9491C7.34243 17.0294 8.7943 17.6985 10.3423 17.8474C11.8904 17.9962 13.4431 17.6159 14.7472 16.7685C16.0512 15.9212 17.0295 14.6568 17.5223 13.1818C18.0152 11.7068 17.9935 10.1082 17.4608 8.64716C16.9281 7.18607 15.9159 5.9487 14.5893 5.13703C13.2628 4.32536 11.7002 3.98733 10.1568 4.17812C8.6134 4.36891 7.18023 5.07725 6.09125 6.18751H7.90625C8.17976 6.18751 8.44206 6.29616 8.63546 6.48955C8.82885 6.68295 8.9375 6.94525 8.9375 7.21876C8.9375 7.49226 8.82885 7.75456 8.63546 7.94796C8.44206 8.14136 8.17976 8.25001 7.90625 8.25001H3.78125C3.50775 8.25001 3.24544 8.14136 3.05205 7.94796C2.85865 7.75456 2.75 7.49226 2.75 7.21876V3.09376C2.75 2.82025 2.85865 2.55795 3.05205 2.36455C3.24544 2.17116 3.50775 2.06251 3.78125 2.06251C4.05476 2.06251 4.31706 2.17116 4.51045 2.36455C4.70385 2.55795 4.8125 2.82025 4.8125 3.09376V4.55126C6.47504 2.95194 8.69309 2.0598 11 2.06251Z" fill="#3B464C"/>
</svg>
