<svg width="28" height="28" viewBox="0 0 28 28" fill="none" xmlns="http://www.w3.org/2000/svg">
<path fill-rule="evenodd" clip-rule="evenodd" d="M13.7497 1.43213C12.3062 1.43213 10.9219 2.00556 9.90116 3.02626C8.88046 4.04697 8.30703 5.43134 8.30703 6.87484C8.30703 8.31833 8.88046 9.70271 9.90116 10.7234C10.9219 11.7441 12.3062 12.3175 13.7497 12.3175C15.1932 12.3175 16.5776 11.7441 17.5983 10.7234C18.619 9.70271 19.1924 8.31833 19.1924 6.87484C19.1924 5.43134 18.619 4.04697 17.5983 3.02626C16.5776 2.00556 15.1932 1.43213 13.7497 1.43213ZM10.0258 6.87484C10.0258 5.88718 10.4181 4.93998 11.1165 4.2416C11.8149 3.54322 12.7621 3.15088 13.7497 3.15088C14.7374 3.15088 15.6846 3.54322 16.383 4.2416C17.0814 4.93998 17.4737 5.88718 17.4737 6.87484C17.4737 7.86249 17.0814 8.8097 16.383 9.50807C15.6846 10.2065 14.7374 10.5988 13.7497 10.5988C12.7621 10.5988 11.8149 10.2065 11.1165 9.50807C10.4181 8.8097 10.0258 7.86249 10.0258 6.87484ZM13.7497 14.0363C11.0994 14.0363 8.65651 14.639 6.84724 15.6565C5.06432 16.6603 3.7237 18.1796 3.7237 20.0519V20.1688C3.72255 21.5003 3.72141 23.1709 5.18693 24.3648C5.90766 24.9515 6.91713 25.3697 8.28068 25.6447C9.64651 25.922 11.4283 26.0675 13.7497 26.0675C16.0712 26.0675 17.8518 25.922 19.2199 25.6447C20.5835 25.3697 21.5918 24.9515 22.3137 24.3648C23.7792 23.1709 23.7769 21.5003 23.7758 20.1688V20.0519C23.7758 18.1796 22.4352 16.6603 20.6534 15.6565C18.843 14.639 16.4012 14.0363 13.7497 14.0363ZM5.44245 20.0519C5.44245 19.0768 6.15515 18.0181 7.68943 17.1553C9.19734 16.3073 11.3378 15.755 13.7509 15.755C16.1617 15.755 18.3021 16.3073 19.81 17.1553C21.3455 18.0181 22.057 19.0768 22.057 20.0519C22.057 21.5507 22.0112 22.394 21.2274 23.0311C20.8035 23.3771 20.0931 23.7151 18.8785 23.9604C17.6673 24.2056 16.0116 24.3488 13.7497 24.3488C11.4879 24.3488 9.83099 24.2056 8.62099 23.9604C7.4064 23.7151 6.69599 23.3771 6.27203 23.0322C5.48828 22.394 5.44245 21.5507 5.44245 20.0519Z" fill="white"/>
</svg>
