<svg width="28" height="28" viewBox="0 0 28 28" fill="none" xmlns="http://www.w3.org/2000/svg">
<path d="M18.9063 5.72917V3.4375M8.59375 5.72917V3.4375M3.72396 9.16667H23.776M3.4375 11.5087C3.4375 9.08531 3.4375 7.87302 3.93708 6.94719C4.38882 6.12139 5.08979 5.45933 5.94 5.05542C6.92083 4.58333 8.20417 4.58333 10.7708 4.58333H16.7292C19.2958 4.58333 20.5792 4.58333 21.56 5.05542C22.4228 5.47021 23.1229 6.1325 23.5629 6.94604C24.0625 7.87417 24.0625 9.08646 24.0625 11.5099V17.1382C24.0625 19.5617 24.0625 20.774 23.5629 21.6998C23.1112 22.5256 22.4102 23.1877 21.56 23.5916C20.5792 24.0625 19.2958 24.0625 16.7292 24.0625H10.7708C8.20417 24.0625 6.92083 24.0625 5.94 23.5904C5.08996 23.1868 4.38901 22.5252 3.93708 21.6998C3.4375 20.7717 3.4375 19.5594 3.4375 17.1359V11.5087Z" stroke="white" stroke-width="1.95833" stroke-linecap="round" stroke-linejoin="round"/>
</svg>
